<?xml version="1.0"?>
<!DOCTYPE svg PUBLIC "-//W3C//DTD SVG 1.1//EN" "http://www.w3.org/Graphics/SVG/1.1/DTD/svg11.dtd">
<svg xmlns="http://www.w3.org/2000/svg" xmlns:xl="http://www.w3.org/1999/xlink" version="1.1" viewBox="-9 136 659 572" width="659pt" height="572pt">
	<metadata xmlns:dc="http://purl.org/dc/elements/1.1/">
		<dc:date>2012-09-15 00:44Z</dc:date>
		<!-- Produced by OmniGraffle Professional 5.4.2 -->
	</metadata>
	<defs/>
	<g stroke="none" stroke-opacity="1" stroke-dasharray="none" fill="none" fill-opacity="0.1">
		<title>Canvas 1</title>
		<g>
			<title>Layer 1</title>
			<path d="M 337.68 581.164 C 337.68 575.572 333.61 568.915 328.631 566.378 L 276.075 539.574 C 271.096 537.035 262.932 537.023 257.947 539.553 L 205.436 566.174 C 200.454 568.706 196.373 575.351 196.373 580.943 L 196.373 647.611 C 196.373 653.205 200.332 660.066 205.175 662.868 L 258.212 693.485 C 263.053 696.279 270.988 696.284 275.829 693.491 L 328.876 662.868 C 333.72 660.066 337.68 653.205 337.68 581.164 Z" fill="black"/>
			<path d="M 180.251 554.495 C 180.251 547.037 174.824 538.163 168.169 534.779 L 98.11 499.043 C 91.472 495.659 80.585 495.641 73.946 499.015 L 3.928 534.512 C -2.713 537.887 -8.159 546.743 -8.159 554.201 L -8.159 643.091 C -8.159 650.547 -2.878 659.7 3.577 663.433 L 74.297 704.255 C 80.751 707.979 91.309 707.987 97.782 704.263 L 168.519 663.433 C 174.972 659.7 180.251 650.547 180.251 554.495 Z" fill="black"/>
			<path d="M 259.68 360.304 C 259.68 366.603 264.265 374.104 269.874 376.962 L 329.078 407.155 C 334.691 410.015 343.887 410.032 349.497 407.183 L 408.655 377.19 C 414.263 374.339 418.861 366.853 418.861 360.554 L 418.861 285.455 C 418.861 279.153 414.404 271.421 408.948 268.267 L 349.204 233.773 C 343.749 230.629 334.81 230.622 329.356 233.768 L 269.597 268.267 C 264.139 271.421 259.68 279.153 259.68 360.304 Z" fill="black"/>
			<path d="M 437.025 390.35 C 437.025 398.751 443.137 408.744 450.636 412.56 L 529.559 452.818 C 537.034 456.628 549.3 456.647 556.781 452.848 L 635.659 412.859 C 643.139 409.055 649.27 399.082 649.27 390.679 L 649.27 290.545 C 649.27 282.146 643.324 271.835 636.052 267.631 L 556.385 221.644 C 549.114 217.446 537.222 217.437 529.927 221.634 L 450.243 267.631 C 442.971 271.835 437.025 282.146 437.025 390.35 Z" fill="black"/>
			<path d="M 374.364 222.888 C 374.364 227.081 377.423 232.085 381.167 233.992 L 420.631 254.116 C 424.368 256.025 430.507 256.033 434.244 254.131 L 473.68 234.137 C 477.421 232.242 480.489 227.247 480.489 223.051 L 480.489 172.985 C 480.489 168.779 477.516 163.626 473.88 161.53 L 434.046 138.53 C 430.41 136.425 424.458 136.425 420.816 138.53 L 380.974 161.53 C 377.341 163.63 374.364 168.779 374.364 222.888 Z" fill="black"/>
		</g>
	</g>
</svg>
