<?xml version="1.0"?>
<!DOCTYPE svg PUBLIC "-//W3C//DTD SVG 1.1//EN" "http://www.w3.org/Graphics/SVG/1.1/DTD/svg11.dtd">
<svg xmlns="http://www.w3.org/2000/svg" xmlns:xl="http://www.w3.org/1999/xlink" version="1.1" viewBox="221 289 175 47" width="175pt" height="47pt"><metadata xmlns:dc="http://purl.org/dc/elements/1.1/"><dc:date>2012-09-14 23:57Z</dc:date><!-- Produced by OmniGraffle Professional 5.4.2 --></metadata><defs></defs><g stroke="none" stroke-opacity="1" stroke-dasharray="none" fill="none" fill-opacity="1"><title>Canvas 1</title><g><title>Layer 1</title><path d="M 295.7563 289.4902 C 294.6793 290.6012 293.3983 291.7832 292.2153 292.9282 L 292.2153 289.4902 Z" fill="#1a1718"/><path d="M 336.6367 289.9189 C 319.3747 289.7129 303.0447 299.9259 295.8947 315.5089 C 294.1317 319.4079 292.8037 323.5999 292.2077 327.9279 L 292.2157 317.0819 C 299.2137 302.1659 314.7607 291.5249 330.6367 289.8149 C 332.6017 289.6469 334.5547 289.4729 336.6057 289.4899 Z" fill="#1a1718"/><path d="M 301.7275 289.5078 C 299.4695 291.3888 297.2455 293.4258 295.0895 295.6488 L 292.2155 298.8808 L 292.2155 296.8278 C 294.7305 294.1268 297.7405 291.5258 300.6155 289.5078 C 300.9575 289.4728 301.4545 289.4898 301.7275 289.5078 Z" fill="#1a1718"/><path d="M 317.0029 289.5078 C 315.8399 290.1748 314.3689 290.9118 313.1549 291.5778 C 304.3439 296.2788 296.4429 304.4918 292.2149 313.4568 L 292.2149 309.3168 C 298.1189 300.4048 306.7549 293.3728 316.1299 289.5078 Z" fill="#1a1718"/><path d="M 292.2241 305.8184 L 292.2151 303.0744 C 296.5951 297.6324 302.1381 292.9124 308.0381 289.5074 L 309.0161 289.5074 C 308.2121 290.1404 307.0131 290.9254 306.0881 291.6284 C 300.5531 295.5004 295.9931 300.3794 292.2241 305.8184 Z" fill="#1a1718"/><path d="M 336.6367 294.2646 C 321.6517 294.1616 307.8507 302.3006 300.6997 315.6816 C 297.9127 321.1696 296.3057 327.1426 296.2187 333.7436 L 292.1637 333.7796 C 292.3857 330.2696 293.2077 326.9176 294.3047 323.7206 C 298.1187 311.5396 309.4077 300.4396 321.4667 296.3846 C 326.1717 294.7436 331.2747 293.8186 336.6287 293.8356 Z" fill="#1a1718"/><path d="M 296.5947 333.7793 C 297.8447 321.3413 305.5077 309.6093 316.9167 303.3303 C 322.6407 300.1723 329.6947 298.3063 336.6427 298.3323 L 336.6407 298.7443 C 322.7327 298.6273 309.7657 306.5953 303.7797 319.1343 C 301.7087 323.6343 300.4427 328.4593 300.3237 333.7793 Z" fill="#1a1718"/><path d="M 336.6406 302.7646 C 324.2916 302.6456 312.7946 309.6096 307.3536 320.7786 C 305.3546 324.7456 304.3286 329.0566 304.1056 333.7796 L 300.6676 333.7796 C 301.9326 321.7866 310.1446 310.6676 321.3146 305.5856 C 325.9986 303.5176 331.0806 302.3006 336.6406 302.3376 Z" fill="#1a1718"/><path d="M 336.623 306.459 C 326.221 306.459 316.626 311.814 311.547 321.053 C 309.476 324.951 308.193 329.057 308.127 333.779 L 304.479 333.779 C 305.678 322.49 314.334 311.779 325.162 308.051 C 328.738 306.785 332.533 305.945 336.623 306.066 Z" fill="#1a1718"/><path d="M 385.6436 310.7842 L 385.6136 316.7842 L 384.2726 316.7842 L 384.2726 318.5132 L 388.7466 318.5132 L 388.7466 316.7842 L 387.4696 316.7842 L 387.4416 312.9332 C 387.5086 312.3032 387.6466 311.7162 388.0276 311.2212 C 388.7466 310.6722 389.7866 310.5522 390.6416 310.6882 L 390.6416 308.7912 C 389.4816 308.5682 388.2516 308.9122 387.3116 309.6132 L 387.3016 309.1072 L 384.2996 309.1072 L 384.2996 310.7762 Z" fill="#1a1718"/><path d="M 336.6406 310.3613 C 327.7796 310.3263 319.5506 314.9453 315.1896 322.6933 C 313.3066 326.0803 312.2816 329.6723 312.1096 333.7793 L 308.5016 333.7793 C 309.6816 323.7203 317.9596 314.1073 327.7616 311.3343 C 330.5156 310.4633 333.5086 310.0003 336.6406 310.0003 Z" fill="#1a1718"/><path d="M 357.0625 312.6855 C 357.1505 311.8475 358.1235 311.0955 358.9105 310.7875 C 360.3985 310.3265 362.0415 310.9075 362.7765 312.3115 L 362.9295 312.6855 Z M 364.0935 310.9945 C 362.7105 308.9395 359.9725 308.1855 357.8005 309.2815 C 356.3455 309.9155 355.2865 311.4385 355.0115 312.9245 C 354.6025 315.1485 355.7645 317.1855 357.6465 318.3145 C 358.9455 319.0825 360.8985 319.1015 362.2465 318.4345 C 363.2905 317.8865 364.4025 316.8265 364.5745 315.6815 L 362.7765 315.6815 L 361.9915 316.5015 C 361.1365 317.1345 359.8025 317.3915 358.7935 316.9105 C 357.8705 316.4845 357.0285 315.5785 356.8595 314.5685 L 364.9165 314.5685 C 365.1235 313.2855 364.7935 312.0185 364.0935 310.9945" fill="#1a1718"/><path d="M 336.6406 314.3447 C 329.0446 314.4157 321.8636 318.3487 318.3206 325.2087 C 316.9516 327.8597 316.2476 330.6307 316.0626 333.7797 L 312.5726 333.7797 C 313.8036 325.3967 320.4756 317.6977 328.7026 315.1837 C 331.1306 314.3447 333.9216 313.9177 336.6606 313.9367 Z" fill="#1a1718"/><path d="M 336.5371 318.4346 C 330.3261 318.3826 324.3731 322.1636 321.8431 327.7576 C 320.9891 329.6566 320.4941 331.5526 320.3731 333.7796 L 316.5941 333.7796 C 317.6171 327.0526 323.8451 320.6936 330.4311 318.9626 C 332.3121 318.3826 334.4151 317.9216 336.5371 318.0036 Z" fill="#1a1718"/><path d="M 344.8672 324.7461 C 344.7302 324.1641 344.4412 323.6171 343.8422 323.3081 C 343.1722 323.0511 342.1812 322.8981 341.5822 323.4471 C 341.1562 323.7711 340.8812 324.2501 340.8992 324.7971 C 340.8812 325.2951 341.0362 325.7231 341.3762 326.0621 C 343.0542 327.0531 345.3632 326.6291 346.5942 328.4921 C 347.3322 329.4491 347.4682 331.0251 346.9722 332.1371 C 346.2712 333.6071 344.7632 334.5641 343.0742 334.4801 C 342.1312 334.4981 341.3282 334.0531 340.6442 333.5391 L 340.6442 334.1371 L 338.9692 334.1371 L 338.9692 330.5621 L 340.7262 330.5471 C 340.7622 331.2641 341.2072 331.8831 341.7872 332.3071 C 342.4052 332.5821 343.1402 332.8051 343.8422 332.5981 C 344.5762 332.3421 345.3122 331.7091 345.4142 330.9021 C 345.5002 330.2911 345.2962 329.7931 344.9512 329.3481 C 343.2952 328.0121 340.4572 328.8181 339.4092 326.4411 C 338.9982 325.5161 338.9502 324.1821 339.4622 323.2751 C 340.0102 322.1801 341.1382 321.4291 342.3362 321.3421 C 343.3792 321.2731 344.2672 321.5811 345.0402 322.1641 L 345.0402 321.5141 L 346.6462 321.5141 L 346.6462 324.7361 Z" fill="#1a1718"/><path d="M 336.6406 322.5918 C 331.8146 322.6578 327.1626 325.5158 325.3316 330.0158 C 324.8536 331.2458 324.5786 332.3768 324.4766 333.7618 L 320.8516 333.7798 C 321.0216 332.6638 321.5876 331.8108 322.0816 330.7868 C 324.9726 325.4468 330.6686 322.2828 336.6406 322.2148 Z" fill="#1a1718"/><path d="M 370.1113 326.4199 L 370.1193 332.4119 L 368.8163 332.4119 L 368.8163 334.1449 L 373.2843 334.1449 L 373.2843 332.4119 L 371.9553 332.4119 L 371.9463 328.7379 C 372.0383 328.0239 372.2773 327.3709 372.8353 326.8499 C 373.2983 326.3689 373.9813 326.2699 374.6823 326.2699 C 375.5033 326.3559 376.3933 326.9529 376.6173 327.7909 C 376.6743 328.1089 376.7153 328.4219 376.7383 328.7359 L 376.7183 332.4119 L 375.3813 332.4119 L 375.3813 334.1449 L 379.8493 334.1449 L 379.8493 332.4119 L 378.5743 332.4119 L 378.5523 328.7149 C 378.5053 327.6019 378.2633 326.5699 377.4373 325.7749 C 376.3083 324.6269 374.2553 324.3379 372.8353 325.0899 C 372.4953 325.2249 372.1623 325.5329 371.8933 325.6519 L 371.8863 324.7679 L 368.8423 324.7559 L 368.8423 326.4219 Z" fill="#1a1718"/><path d="M 336.6406 326.252 C 333.4406 326.336 330.2406 328.117 329.0286 331.16 C 328.7186 332.049 328.4636 332.768 328.4456 333.779 L 324.8866 333.779 C 326.2536 329.279 331.0306 326.08 335.6826 325.824 C 335.8846 325.824 336.5086 325.807 336.6386 325.816 Z" fill="#1a1718"/><path d="M 352.1367 316.7617 L 352.1367 308.5637 L 347.9907 318.4897 L 346.7677 318.5037 L 342.5837 308.5327 L 342.6117 316.7867 L 343.8647 316.7677 L 343.8647 318.4997 L 339.3947 318.4997 L 339.3947 316.7677 L 340.6937 316.7617 L 340.6927 307.7597 C 340.6477 307.6447 340.6307 307.6077 340.5057 307.5877 L 339.4617 307.5877 L 339.4617 305.9137 L 343.3947 305.9137 L 347.2967 315.0667 L 347.8787 313.8657 L 351.1627 305.9137 L 355.3347 305.9137 L 355.3347 307.5877 L 354.1727 307.5877 L 354.0357 307.7427 L 354.0107 316.7617 L 355.3027 316.7617 L 355.3027 318.4937 L 350.8337 318.4937 L 350.8337 316.7617 Z" fill="#1a1718"/><path d="M 369.2539 321.6973 L 373.9049 310.7763 L 375.1009 310.7763 L 375.1009 309.1073 L 370.6349 309.1073 L 370.6349 310.7763 L 371.9359 310.7763 L 369.7559 315.9203 L 367.7039 310.7763 L 369.0079 310.7763 L 369.0079 309.1073 L 364.5389 309.1073 L 364.5389 310.7763 L 365.5659 310.7813 L 368.6469 318.4343 L 367.9379 320.0233 L 366.2929 320.0233 L 366.2929 321.6923 Z" fill="#1a1718"/><path d="M 376.6279 312.6855 C 376.7159 311.8475 377.6909 311.0955 378.4759 310.7875 C 379.9639 310.3265 381.6069 310.9075 382.3429 312.3115 L 382.4949 312.6855 Z M 383.6589 310.9945 C 382.2739 308.9395 379.5369 308.1855 377.3649 309.2815 C 375.9109 309.9155 374.8489 311.4385 374.5749 312.9245 C 374.1649 315.1485 375.3289 317.1855 377.2119 318.3145 C 378.5089 319.0825 380.4609 319.1015 381.8109 318.4345 C 382.8569 317.8865 383.9679 316.8265 384.1389 315.6815 L 382.3429 315.6815 L 381.5559 316.5015 C 380.6989 317.1345 379.3629 317.3915 378.3569 316.9105 C 377.4339 316.4845 376.5949 315.5785 376.4219 314.5685 L 384.4819 314.5685 C 384.6859 313.2855 384.3589 312.0185 383.6589 310.9945" fill="#1a1718"/><path d="M 363.8242 326.4727 L 365.0682 326.4787 L 365.0642 330.7247 C 364.9482 331.3747 364.6902 331.9627 364.1632 332.4277 C 363.6152 332.7517 362.9822 333.0077 362.2812 332.8397 C 361.7002 332.6837 361.0982 332.4107 360.7582 331.8107 C 360.5332 331.1347 360.4352 330.4087 360.3982 329.6567 L 360.3982 324.7637 L 357.3882 324.7637 L 357.3882 326.4727 L 358.5862 326.4727 C 358.6382 328.6307 358.4282 330.7777 359.1482 332.7017 C 359.4862 333.6187 360.6872 334.3207 361.7002 334.4807 C 362.9652 334.6677 364.2482 334.4457 365.1572 333.5387 L 365.1632 334.1427 L 368.2322 334.1547 L 368.2322 332.4197 L 366.8892 332.4107 L 366.8882 324.7537 L 363.8242 324.7637 Z" fill="#1a1718"/><path d="M 384.5957 332.8184 C 382.8247 332.8184 381.3897 331.3844 381.3897 329.6134 C 381.3897 327.8434 382.8247 326.4084 384.5957 326.4084 C 386.3667 326.4084 387.8007 327.8434 387.8007 329.6134 C 387.8007 331.3844 386.3667 332.8184 384.5957 332.8184 M 389.4257 332.4124 L 389.4457 321.7284 L 386.3987 321.7504 L 386.3987 323.4184 L 387.6657 323.3984 L 387.6657 325.8414 C 386.3497 324.6274 384.3487 324.1974 382.6367 324.7814 C 381.0977 325.4314 379.9697 326.9004 379.6117 328.4744 C 379.3207 330.1014 379.7987 331.6404 380.7557 332.8534 C 381.9707 334.3414 383.7847 334.6604 385.5617 334.4804 C 386.1457 334.4224 387.0487 333.8814 387.6997 333.2654 L 387.6997 334.1464 L 390.9037 334.1464 L 390.9037 332.4124 L 389.4257 332.4124" fill="#1a1718"/><path d="M 352.7363 332.9102 C 350.9163 332.9102 349.4393 331.4312 349.4393 329.6132 C 349.4393 327.7912 350.9163 326.3182 352.7363 326.3182 C 354.5563 326.3182 356.0333 327.7912 356.0333 329.6132 C 356.0333 331.4312 354.5563 332.9102 352.7363 332.9102 M 352.7363 324.5802 C 349.9823 324.5802 347.7463 326.8162 347.7463 329.5702 C 347.7463 332.3262 349.9823 334.5582 352.7363 334.5582 C 355.4913 334.5582 357.7243 332.3262 357.7243 329.5702 C 357.7243 326.8162 355.4913 324.5802 352.7363 324.5802" fill="#1a1718"/><path d="M 393.6289 307 L 393.8809 307 C 394.1699 307 394.4129 306.895 394.4129 306.623 C 394.4129 306.432 394.2729 306.242 393.8809 306.242 C 393.7679 306.242 393.6909 306.248 393.6289 306.258 Z M 393.6289 308.209 L 393.2809 308.209 L 393.2809 306.021 C 393.4639 305.997 393.6389 305.969 393.8979 305.969 C 394.2309 305.969 394.4489 306.039 394.5789 306.136 C 394.7089 306.231 394.7809 306.379 394.7809 306.588 C 394.7809 306.877 394.5889 307.051 394.3529 307.12 L 394.3529 307.137 C 394.5429 307.172 394.6739 307.346 394.7179 307.668 C 394.7719 308.01 394.8229 308.139 394.8579 308.209 L 394.4919 308.209 C 394.4399 308.139 394.3869 307.939 394.3429 307.65 C 394.2909 307.375 394.1499 307.268 393.8749 307.268 L 393.6289 307.268 L 393.6289 308.209 M 393.9969 305.412 C 393.1329 305.412 392.4259 306.153 392.4259 307.066 C 392.4259 308 393.1329 308.732 394.0049 308.732 C 394.8759 308.742 395.5729 308 395.5729 307.076 C 395.5729 306.153 394.8759 305.412 394.0049 305.412 L 393.9969 305.412 M 394.0049 305.107 C 395.0739 305.107 395.9309 305.979 395.9309 307.066 C 395.9309 308.176 395.0739 309.037 393.9969 309.037 C 392.9239 309.037 392.0529 308.176 392.0529 307.066 C 392.0529 305.979 392.9239 305.107 393.9969 305.107 L 394.0049 305.107" fill="#1a1718"/><path d="M 221.8765 309.127 L 222.8035 309.127 L 222.8035 310.847 L 223.8285 310.847 L 223.8285 311.573 L 222.8035 311.573 L 222.8035 315.367 C 222.8035 315.842 222.9255 316.027 223.4095 316.027 C 223.6085 316.027 223.7185 316.004 223.8175 315.994 L 223.8175 316.754 C 223.6965 316.775 223.4545 316.822 223.0685 316.822 C 222.1095 316.822 221.8765 316.425 221.8765 315.652 L 221.8765 311.573 L 221.0185 311.573 L 221.0185 310.847 L 221.8765 310.847 Z" fill="#1a1718"/><path d="M 224.5898 308.8857 L 225.5138 308.8857 L 225.5138 311.5197 L 225.5368 311.5197 C 225.7788 311.0327 226.4288 310.6927 226.9568 310.6927 C 228.4778 310.6927 228.4778 311.8717 228.4778 312.5667 L 228.4778 316.7537 L 227.5528 316.7537 L 227.5528 312.6757 C 227.5528 312.2247 227.5208 311.4867 226.6838 311.4867 C 226.1868 311.4867 225.5138 311.8167 225.5138 312.6757 L 225.5138 316.7537 L 224.5898 316.7537 Z" fill="#1a1718"/><path d="M 229.615 310.847 L 230.54 310.847 L 230.54 316.754 L 229.615 316.754 Z M 229.615 308.886 L 230.54 308.886 L 230.54 309.946 L 229.615 309.946 Z" fill="#1a1718"/><path d="M 231.6768 310.8467 L 232.5588 310.8467 L 232.5588 311.5407 L 232.5808 311.5407 C 232.8228 311.0017 233.4408 310.6927 234.0148 310.6927 C 235.5668 310.6927 235.5668 311.8717 235.5668 312.5667 L 235.5668 316.7537 L 234.6398 316.7537 L 234.6398 312.6757 C 234.6398 312.2247 234.6088 311.4867 233.7708 311.4867 C 233.2738 311.4867 232.6028 311.8167 232.6028 312.6757 L 232.6028 316.7537 L 231.6768 316.7537 Z" fill="#1a1718"/><path d="M 241.1094 316.7539 L 240.0314 316.7539 L 238.3874 313.8339 L 237.6274 314.7599 L 237.6274 316.7539 L 236.7034 316.7539 L 236.7034 308.8859 L 237.6274 308.8859 L 237.6274 313.5679 L 237.6504 313.5679 L 239.7204 310.8469 L 240.8014 310.8469 L 239.0054 313.0739 Z" fill="#1a1718"/><path d="M 241.784 310.847 L 242.71 310.847 L 242.71 316.754 L 241.784 316.754 Z M 241.784 308.886 L 242.71 308.886 L 242.71 309.946 L 241.784 309.946 Z" fill="#1a1718"/><path d="M 243.8472 310.8467 L 244.7312 310.8467 L 244.7312 311.5407 L 244.7502 311.5407 C 244.9942 311.0017 245.6122 310.6927 246.1842 310.6927 C 247.7372 310.6927 247.7372 311.8717 247.7372 312.5667 L 247.7372 316.7537 L 246.8122 316.7537 L 246.8122 312.6757 C 246.8122 312.2247 246.7802 311.4867 245.9412 311.4867 C 245.4452 311.4867 244.7732 311.8167 244.7732 312.6757 L 244.7732 316.7537 L 243.8472 316.7537 Z" fill="#1a1718"/><path d="M 249.4561 313.8008 C 249.4561 314.7598 249.5991 315.9608 250.5241 315.9608 C 251.5281 315.9608 251.7261 315.0138 251.7261 313.8008 C 251.7261 312.6538 251.5281 311.4868 250.5361 311.4868 C 249.6781 311.4868 249.4561 312.3928 249.4561 313.8008 M 252.5971 316.3808 C 252.5971 318.1428 251.7821 318.7828 250.5911 318.7828 C 250.2271 318.7828 248.8051 318.7828 248.6521 317.3048 L 249.5781 317.3048 C 249.6231 317.8438 250.0401 318.0548 250.5241 318.0548 C 251.7151 318.0548 251.6731 317.1388 251.6731 316.7328 L 251.6731 315.9608 L 251.6501 315.9608 C 251.4511 316.4558 250.9011 316.7538 250.3151 316.7538 C 248.5971 316.7538 248.4851 314.5818 248.4851 313.8008 C 248.4851 312.2018 248.9181 310.6928 250.4151 310.6928 C 251.0531 310.6928 251.5721 311.1348 251.6931 311.5958 L 251.7151 311.5958 L 251.7151 310.8468 L 252.5971 310.8468 Z" fill="#1a1718"/><path d="M 259.4321 312.5762 C 259.4321 311.8282 259.2311 311.4192 258.5581 311.4192 C 258.2621 311.4192 257.6011 311.4962 257.6011 312.3242 C 257.6011 313.0192 258.3281 313.1502 259.0561 313.3932 C 259.7721 313.6352 260.4971 313.8892 260.4971 315.0572 C 260.4971 316.3042 259.6941 316.9092 258.5911 316.9092 C 256.5841 316.9092 256.5641 315.4202 256.5641 314.8162 L 257.4901 314.8162 C 257.4901 315.5302 257.6891 316.1802 258.5911 316.1802 C 258.8891 316.1802 259.5721 316.0392 259.5721 315.2022 C 259.5721 314.4062 258.8471 314.2422 258.1291 313.9992 C 257.4141 313.7562 256.6731 313.5482 256.6731 312.3242 C 256.6731 311.2222 257.5351 310.6922 258.5581 310.6922 C 260.2781 310.6922 260.3451 311.8832 260.3561 312.5762 Z" fill="#1a1718"/><path d="M 264.5972 313.8008 C 264.5972 312.5238 264.4112 311.4188 263.4202 311.4188 C 262.4832 311.4188 262.2842 312.5238 262.2842 313.8008 C 262.2842 315.0798 262.4712 316.1808 263.4202 316.1808 C 264.4012 316.1808 264.5972 315.0798 264.5972 313.8008 M 263.4432 310.6928 C 265.1502 310.6928 265.5682 312.1368 265.5682 313.8008 C 265.5682 315.4648 265.1392 316.9088 263.4432 316.9088 C 261.7332 316.9088 261.3142 315.4648 261.3142 313.8008 C 261.3142 312.1368 261.7442 310.6928 263.4432 310.6928" fill="#1a1718"/><path d="M 270.4023 316.7539 L 269.5213 316.7539 L 269.5213 316.0609 L 269.4993 316.0609 C 269.2563 316.6009 268.6403 316.9089 268.0663 316.9089 C 266.5133 316.9089 266.5133 315.7289 266.5133 315.0349 L 266.5133 310.8469 L 267.4373 310.8469 L 267.4373 314.9259 C 267.4373 315.3769 267.4703 316.1149 268.3093 316.1149 C 268.8043 316.1149 269.4773 315.7829 269.4773 314.9259 L 269.4773 310.8469 L 270.4023 310.8469 Z" fill="#1a1718"/><path d="M 271.5386 310.8467 L 272.4196 310.8467 L 272.4196 311.5407 L 272.4416 311.5407 C 272.6846 311.0017 273.2986 310.6927 273.8736 310.6927 C 275.4276 310.6927 275.4276 311.8717 275.4276 312.5667 L 275.4276 316.7537 L 274.5016 316.7537 L 274.5016 312.6757 C 274.5016 312.2247 274.4696 311.4867 273.6306 311.4867 C 273.1356 311.4867 272.4636 311.8167 272.4636 312.6757 L 272.4636 316.7537 L 271.5386 316.7537 Z" fill="#1a1718"/><path d="M 278.3716 316.1152 C 279.3946 316.1152 279.5606 315.1442 279.5606 313.8012 C 279.5606 312.6532 279.3636 311.4862 278.3716 311.4862 C 277.5116 311.4862 277.2906 312.3922 277.2906 313.8012 C 277.2906 315.2112 277.5116 316.1152 278.3716 316.1152 M 280.4306 316.7542 L 279.5506 316.7542 L 279.5506 316.0272 L 279.5286 316.0272 C 279.4076 316.4692 278.8886 316.9092 278.2496 316.9092 C 276.8506 316.9092 276.3216 315.6652 276.3216 313.8012 C 276.3216 312.5662 276.5186 310.6922 278.1836 310.6922 C 278.7116 310.6922 279.2736 311.0112 279.4846 311.5192 L 279.5056 311.5192 L 279.5056 308.8862 L 280.4306 308.8862 Z" fill="#1a1718"/></g></g></svg>
