<?xml version="1.0" encoding="UTF-8" standalone="no"?>
<!-- Created with Inkscape (http://www.inkscape.org/) -->

<svg
   xmlns:dc="http://purl.org/dc/elements/1.1/"
   xmlns:cc="http://creativecommons.org/ns#"
   xmlns:rdf="http://www.w3.org/1999/02/22-rdf-syntax-ns#"
   xmlns:svg="http://www.w3.org/2000/svg"
   xmlns="http://www.w3.org/2000/svg"
   xmlns:sodipodi="http://sodipodi.sourceforge.net/DTD/sodipodi-0.dtd"
   xmlns:inkscape="http://www.inkscape.org/namespaces/inkscape"
   id="svg2"
   version="1.1"
   inkscape:version="0.48.2 r9819"
   width="55.621124"
   height="55.365452"
   xml:space="preserve"
   sodipodi:docname="thinking_sound_logo_blue.svg">
	<metadata
   id="metadata8">
		<rdf:RDF>
			<cc:Work
   rdf:about="">
				<dc:format>image/svg+xml</dc:format>
				<dc:type
   rdf:resource="http://purl.org/dc/dcmitype/StillImage" />
				<dc:title></dc:title>
			</cc:Work>
		</rdf:RDF>
	</metadata>
	<defs
   id="defs6">
		<clipPath
   clipPathUnits="userSpaceOnUse"
   id="clipPath20">
			<path
   d="M 0,792 612,792 612,0 0,0 0,792 z"
   id="path22"
   inkscape:connector-curvature="0" />
		</clipPath>
	
			
		
				
				
				
				
				
				
				
				
				
				
				
				
				
				
				
				
				
				
				
				
				
				
				
				
				
				
				
				
				
				
				
				
				
				
				
				
				
				
			</defs>
	<sodipodi:namedview
   pagecolor="#ffffff"
   bordercolor="#666666"
   borderopacity="1"
   objecttolerance="10"
   gridtolerance="10"
   guidetolerance="10"
   inkscape:pageopacity="0"
   inkscape:pageshadow="2"
   inkscape:window-width="1366"
   inkscape:window-height="720"
   id="namedview4"
   showgrid="false"
   inkscape:zoom="1.950039"
   inkscape:cx="17.26579"
   inkscape:cy="45.260958"
   inkscape:window-x="0"
   inkscape:window-y="0"
   inkscape:window-maximized="1"
   inkscape:current-layer="g10"
   fit-margin-top="0"
   fit-margin-left="0"
   fit-margin-right="0"
   fit-margin-bottom="0"
   units="in" />
	<g
   id="g10"
   inkscape:groupmode="layer"
   inkscape:label="thinking_sound_logo_blue"
   transform="matrix(1.25,0,0,-1.25,-365.20463,628.1407)">
		
		<g
   id="g24"
   transform="translate(295.7563,502.5098)">
					<path
   d="M 0,0 C -1.077,-1.111 -2.358,-2.293 -3.541,-3.438 L -3.541,0 0,0 z"
   style="fill:#373535;fill-opacity:1;fill-rule:nonzero;stroke:none"
   id="path26"
   inkscape:connector-curvature="0" />
				</g><g
   id="g28"
   transform="translate(336.6367,502.0811)">
					<path
   d="m 0,0 c -17.262,0.206 -33.592,-10.007 -40.742,-25.59 -1.763,-3.899 -3.091,-8.091 -3.687,-12.419 l 0.008,10.846 c 6.998,14.916 22.545,25.557 38.421,27.267 1.965,0.168 3.918,0.342 5.969,0.325 L 0,0 z"
   style="fill:#373535;fill-opacity:1;fill-rule:nonzero;stroke:none"
   id="path30"
   inkscape:connector-curvature="0" />
				</g><g
   id="g32"
   transform="translate(301.7275,502.4922)">
					<path
   d="m 0,0 c -2.258,-1.881 -4.482,-3.918 -6.638,-6.141 l -2.874,-3.232 0,2.053 c 2.515,2.701 5.525,5.302 8.4,7.32 C -0.77,0.035 -0.273,0.018 0,0"
   style="fill:#373535;fill-opacity:1;fill-rule:nonzero;stroke:none"
   id="path34"
   inkscape:connector-curvature="0" />
				</g><g
   id="g36"
   transform="translate(317.0029,502.4922)">
					<path
   d="m 0,0 c -1.163,-0.667 -2.634,-1.404 -3.848,-2.07 -8.811,-4.701 -16.712,-12.914 -20.94,-21.879 l 0,4.14 c 5.904,8.912 14.54,15.944 23.915,19.809 L 0,0 z"
   style="fill:#373535;fill-opacity:1;fill-rule:nonzero;stroke:none"
   id="path38"
   inkscape:connector-curvature="0" />
				</g><g
   id="g40"
   transform="translate(292.2241,486.1816)">
					<path
   d="m 0,0 -0.009,2.744 c 4.38,5.442 9.923,10.162 15.823,13.567 l 0.978,0 C 15.988,15.678 14.789,14.893 13.864,14.19 8.329,10.318 3.769,5.439 0,0"
   style="fill:#373535;fill-opacity:1;fill-rule:nonzero;stroke:none"
   id="path42"
   inkscape:connector-curvature="0" />
				</g><g
   id="g44"
   transform="translate(336.6367,497.7354)">
					<path
   d="m 0,0 c -14.985,0.103 -28.786,-8.036 -35.937,-21.417 -2.787,-5.488 -4.394,-11.461 -4.481,-18.062 l -4.055,-0.036 c 0.222,3.51 1.044,6.862 2.141,10.059 3.814,12.181 15.103,23.281 27.162,27.336 4.705,1.641 9.808,2.566 15.162,2.549 L 0,0 z"
   style="fill:#373535;fill-opacity:1;fill-rule:nonzero;stroke:none"
   id="path46"
   inkscape:connector-curvature="0" />
				</g><g
   id="g48"
   transform="translate(296.5947,458.2207)">
					<path
   d="m 0,0 c 1.25,12.438 8.913,24.17 20.322,30.449 5.724,3.158 12.778,5.024 19.726,4.998 L 40.046,35.035 C 26.138,35.152 13.171,27.184 7.185,14.645 5.114,10.145 3.848,5.32 3.729,0 L 0,0 z"
   style="fill:#373535;fill-opacity:1;fill-rule:nonzero;stroke:none"
   id="path50"
   inkscape:connector-curvature="0" />
				</g><g
   id="g52"
   transform="translate(336.6406,489.2354)">
					<path
   d="m 0,0 c -12.349,0.119 -23.846,-6.845 -29.287,-18.014 -1.999,-3.967 -3.025,-8.278 -3.248,-13.001 l -3.438,0 c 1.265,11.993 9.477,23.112 20.647,28.194 C -10.642,-0.753 -5.56,0.464 0,0.427 L 0,0 z"
   style="fill:#373535;fill-opacity:1;fill-rule:nonzero;stroke:none"
   id="path54"
   inkscape:connector-curvature="0" />
				</g><g
   id="g56"
   transform="translate(336.623,485.541)">
					<path
   d="m 0,0 c -10.402,0 -19.997,-5.355 -25.076,-14.594 -2.071,-3.898 -3.354,-8.004 -3.42,-12.726 l -3.648,0 c 1.199,11.289 9.855,22 20.683,25.728 C -7.885,-0.326 -4.09,0.514 0,0.393 L 0,0 z"
   style="fill:#373535;fill-opacity:1;fill-rule:nonzero;stroke:none"
   id="path58"
   inkscape:connector-curvature="0" />
				</g><g
   id="g64"
   transform="translate(336.6406,481.6387)">
					<path
   d="m 0,0 c -8.861,0.035 -17.09,-4.584 -21.451,-12.332 -1.883,-3.387 -2.908,-6.979 -3.08,-11.086 l -3.608,0 c 1.18,10.059 9.458,19.672 19.26,22.445 2.754,0.871 5.747,1.334 8.879,1.334 L 0,0 z"
   style="fill:#373535;fill-opacity:1;fill-rule:nonzero;stroke:none"
   id="path66"
   inkscape:connector-curvature="0" />
				</g><g
   id="g72"
   transform="translate(336.6406,477.6553)">
					<path
   d="m 0,0 c -7.596,-0.071 -14.777,-4.004 -18.32,-10.864 -1.369,-2.651 -2.073,-5.422 -2.258,-8.571 l -3.49,0 c 1.231,8.383 7.903,16.082 16.13,18.596 C -5.51,0 -2.719,0.427 0.02,0.408 L 0,0 z"
   style="fill:#373535;fill-opacity:1;fill-rule:nonzero;stroke:none"
   id="path74"
   inkscape:connector-curvature="0" />
				</g><g
   id="g76"
   transform="translate(336.5371,473.5654)">
					<path
   d="m 0,0 c -6.211,0.052 -12.164,-3.729 -14.694,-9.323 -0.854,-1.899 -1.349,-3.795 -1.47,-6.022 l -3.779,0 c 1.023,6.727 7.251,13.086 13.837,14.817 1.881,0.58 3.984,1.041 6.106,0.959 L 0,0 z"
   style="fill:#373535;fill-opacity:1;fill-rule:nonzero;stroke:none"
   id="path78"
   inkscape:connector-curvature="0" />
				</g><g
   id="g84"
   transform="translate(336.6406,469.4082)">
					<path
   d="m 0,0 c -4.826,-0.066 -9.478,-2.924 -11.309,-7.424 -0.478,-1.23 -0.753,-2.361 -0.855,-3.746 l -3.625,-0.018 c 0.17,1.116 0.736,1.969 1.23,2.993 2.891,5.34 8.587,8.504 14.559,8.572 L 0,0 z"
   style="fill:#373535;fill-opacity:1;fill-rule:nonzero;stroke:none"
   id="path86"
   inkscape:connector-curvature="0" />
				</g><g
   id="g92"
   transform="translate(336.6406,465.748)">
					<path
   d="m 0,0 c -3.2,-0.084 -6.4,-1.865 -7.612,-4.908 -0.31,-0.889 -0.565,-1.608 -0.583,-2.619 l -3.559,0 c 1.367,4.5 6.144,7.699 10.796,7.955 0.202,0 0.826,0.017 0.956,0.008 L 0,0 z"
   style="fill:#373535;fill-opacity:1;fill-rule:nonzero;stroke:none"
   id="path94"
   inkscape:connector-curvature="0" />
				</g>
	</g>
</svg>