<?xml version="1.0" encoding="UTF-8" standalone="no"?>
<!-- Created with Inkscape (http://www.inkscape.org/) -->

<svg
   xmlns:dc="http://purl.org/dc/elements/1.1/"
   xmlns:cc="http://creativecommons.org/ns#"
   xmlns:rdf="http://www.w3.org/1999/02/22-rdf-syntax-ns#"
   xmlns:svg="http://www.w3.org/2000/svg"
   xmlns="http://www.w3.org/2000/svg"
   xmlns:sodipodi="http://sodipodi.sourceforge.net/DTD/sodipodi-0.dtd"
   xmlns:inkscape="http://www.inkscape.org/namespaces/inkscape"
   id="svg2"
   version="1.1"
   inkscape:version="0.48.2 r9819"
   width="218.6405"
   height="56.338451"
   xml:space="preserve"
   sodipodi:docname="thinking_sound_logo_blue.svg">
	<metadata
   id="metadata8">
		<rdf:RDF>
			<cc:Work
   rdf:about="">
				<dc:format>image/svg+xml</dc:format>
				<dc:type
   rdf:resource="http://purl.org/dc/dcmitype/StillImage" />
				<dc:title></dc:title>
			</cc:Work>
		</rdf:RDF>
	</metadata>
	<defs
   id="defs6">
		<clipPath
   clipPathUnits="userSpaceOnUse"
   id="clipPath20">
			<path
   d="M 0,792 612,792 612,0 0,0 0,792 z"
   id="path22"
   inkscape:connector-curvature="0" />
		</clipPath>
	</defs>
	<sodipodi:namedview
   pagecolor="#ffffff"
   bordercolor="#666666"
   borderopacity="1"
   objecttolerance="10"
   gridtolerance="10"
   guidetolerance="10"
   inkscape:pageopacity="0"
   inkscape:pageshadow="2"
   inkscape:window-width="1366"
   inkscape:window-height="720"
   id="namedview4"
   showgrid="false"
   inkscape:zoom="1.950039"
   inkscape:cx="106.19729"
   inkscape:cy="46.23393"
   inkscape:window-x="0"
   inkscape:window-y="0"
   inkscape:window-maximized="1"
   inkscape:current-layer="g10"
   fit-margin-top="0"
   fit-margin-left="0"
   fit-margin-right="0"
   fit-margin-bottom="0" />
	<g
   id="g10"
   inkscape:groupmode="layer"
   inkscape:label="thinking_sound_logo_blue"
   transform="matrix(1.25,0,0,-1.25,-276.27312,628.1407)">
		<g
   id="g12"
   transform="translate(363.8242,467.2363)">
			<path
   d="M 0,0 0,-1.709"
   style="fill:#618bc7;fill-opacity:1;fill-rule:nonzero;stroke:none"
   id="path14"
   inkscape:connector-curvature="0" />
		</g>
		<g
   id="g16">
			<g
   id="g18"
   clip-path="url(#clipPath20)">
				<g
   id="g24"
   transform="translate(295.7563,502.5098)">
					<path
   d="M 0,0 C -1.077,-1.111 -2.358,-2.293 -3.541,-3.438 L -3.541,0 0,0 z"
   style="fill:#373535;fill-opacity:1;fill-rule:nonzero;stroke:none"
   id="path26"
   inkscape:connector-curvature="0" />
				</g>
				<g
   id="g28"
   transform="translate(336.6367,502.0811)">
					<path
   d="m 0,0 c -17.262,0.206 -33.592,-10.007 -40.742,-25.59 -1.763,-3.899 -3.091,-8.091 -3.687,-12.419 l 0.008,10.846 c 6.998,14.916 22.545,25.557 38.421,27.267 1.965,0.168 3.918,0.342 5.969,0.325 L 0,0 z"
   style="fill:#373535;fill-opacity:1;fill-rule:nonzero;stroke:none"
   id="path30"
   inkscape:connector-curvature="0" />
				</g>
				<g
   id="g32"
   transform="translate(301.7275,502.4922)">
					<path
   d="m 0,0 c -2.258,-1.881 -4.482,-3.918 -6.638,-6.141 l -2.874,-3.232 0,2.053 c 2.515,2.701 5.525,5.302 8.4,7.32 C -0.77,0.035 -0.273,0.018 0,0"
   style="fill:#373535;fill-opacity:1;fill-rule:nonzero;stroke:none"
   id="path34"
   inkscape:connector-curvature="0" />
				</g>
				<g
   id="g36"
   transform="translate(317.0029,502.4922)">
					<path
   d="m 0,0 c -1.163,-0.667 -2.634,-1.404 -3.848,-2.07 -8.811,-4.701 -16.712,-12.914 -20.94,-21.879 l 0,4.14 c 5.904,8.912 14.54,15.944 23.915,19.809 L 0,0 z"
   style="fill:#373535;fill-opacity:1;fill-rule:nonzero;stroke:none"
   id="path38"
   inkscape:connector-curvature="0" />
				</g>
				<g
   id="g40"
   transform="translate(292.2241,486.1816)">
					<path
   d="m 0,0 -0.009,2.744 c 4.38,5.442 9.923,10.162 15.823,13.567 l 0.978,0 C 15.988,15.678 14.789,14.893 13.864,14.19 8.329,10.318 3.769,5.439 0,0"
   style="fill:#373535;fill-opacity:1;fill-rule:nonzero;stroke:none"
   id="path42"
   inkscape:connector-curvature="0" />
				</g>
				<g
   id="g44"
   transform="translate(336.6367,497.7354)">
					<path
   d="m 0,0 c -14.985,0.103 -28.786,-8.036 -35.937,-21.417 -2.787,-5.488 -4.394,-11.461 -4.481,-18.062 l -4.055,-0.036 c 0.222,3.51 1.044,6.862 2.141,10.059 3.814,12.181 15.103,23.281 27.162,27.336 4.705,1.641 9.808,2.566 15.162,2.549 L 0,0 z"
   style="fill:#373535;fill-opacity:1;fill-rule:nonzero;stroke:none"
   id="path46"
   inkscape:connector-curvature="0" />
				</g>
				<g
   id="g48"
   transform="translate(296.5947,458.2207)">
					<path
   d="m 0,0 c 1.25,12.438 8.913,24.17 20.322,30.449 5.724,3.158 12.778,5.024 19.726,4.998 L 40.046,35.035 C 26.138,35.152 13.171,27.184 7.185,14.645 5.114,10.145 3.848,5.32 3.729,0 L 0,0 z"
   style="fill:#373535;fill-opacity:1;fill-rule:nonzero;stroke:none"
   id="path50"
   inkscape:connector-curvature="0" />
				</g>
				<g
   id="g52"
   transform="translate(336.6406,489.2354)">
					<path
   d="m 0,0 c -12.349,0.119 -23.846,-6.845 -29.287,-18.014 -1.999,-3.967 -3.025,-8.278 -3.248,-13.001 l -3.438,0 c 1.265,11.993 9.477,23.112 20.647,28.194 C -10.642,-0.753 -5.56,0.464 0,0.427 L 0,0 z"
   style="fill:#373535;fill-opacity:1;fill-rule:nonzero;stroke:none"
   id="path54"
   inkscape:connector-curvature="0" />
				</g>
				<g
   id="g56"
   transform="translate(336.623,485.541)">
					<path
   d="m 0,0 c -10.402,0 -19.997,-5.355 -25.076,-14.594 -2.071,-3.898 -3.354,-8.004 -3.42,-12.726 l -3.648,0 c 1.199,11.289 9.855,22 20.683,25.728 C -7.885,-0.326 -4.09,0.514 0,0.393 L 0,0 z"
   style="fill:#373535;fill-opacity:1;fill-rule:nonzero;stroke:none"
   id="path58"
   inkscape:connector-curvature="0" />
				</g>
				<g
   id="g60"
   transform="translate(385.6436,481.2158)">
					<path
   d="m 0,0 -0.03,-6 -1.341,0 0,-1.729 4.474,0 0,1.729 -1.277,0 -0.028,3.851 c 0.067,0.63 0.205,1.217 0.586,1.712 0.719,0.549 1.759,0.669 2.614,0.533 l 0,1.897 C 3.838,2.216 2.608,1.872 1.668,1.171 l -0.01,0.506 -3.002,0 0,-1.669 L 0,0 z"
   style="fill:#618bc7;fill-opacity:1;fill-rule:nonzero;stroke:none"
   id="path62"
   inkscape:connector-curvature="0" />
				</g>
				<g
   id="g64"
   transform="translate(336.6406,481.6387)">
					<path
   d="m 0,0 c -8.861,0.035 -17.09,-4.584 -21.451,-12.332 -1.883,-3.387 -2.908,-6.979 -3.08,-11.086 l -3.608,0 c 1.18,10.059 9.458,19.672 19.26,22.445 2.754,0.871 5.747,1.334 8.879,1.334 L 0,0 z"
   style="fill:#373535;fill-opacity:1;fill-rule:nonzero;stroke:none"
   id="path66"
   inkscape:connector-curvature="0" />
				</g>
				<g
   id="g68"
   transform="translate(357.0625,479.3145)">
					<path
   d="M 0,0 C 0.088,0.838 1.061,1.59 1.848,1.898 3.336,2.359 4.979,1.778 5.714,0.374 L 5.867,0 0,0 z M 7.031,1.691 C 5.648,3.746 2.91,4.5 0.738,3.404 -0.717,2.77 -1.776,1.247 -2.051,-0.239 -2.46,-2.463 -1.298,-4.5 0.584,-5.629 c 1.299,-0.768 3.252,-0.787 4.6,-0.12 1.044,0.548 2.156,1.608 2.328,2.753 l -1.798,0 -0.785,-0.82 C 4.074,-4.449 2.74,-4.706 1.731,-4.225 c -0.923,0.426 -1.765,1.332 -1.934,2.342 l 8.057,0 C 8.061,-0.6 7.731,0.667 7.031,1.691"
   style="fill:#618bc7;fill-opacity:1;fill-rule:nonzero;stroke:none"
   id="path70"
   inkscape:connector-curvature="0" />
				</g>
				<g
   id="g72"
   transform="translate(336.6406,477.6553)">
					<path
   d="m 0,0 c -7.596,-0.071 -14.777,-4.004 -18.32,-10.864 -1.369,-2.651 -2.073,-5.422 -2.258,-8.571 l -3.49,0 c 1.231,8.383 7.903,16.082 16.13,18.596 C -5.51,0 -2.719,0.427 0.02,0.408 L 0,0 z"
   style="fill:#373535;fill-opacity:1;fill-rule:nonzero;stroke:none"
   id="path74"
   inkscape:connector-curvature="0" />
				</g>
				<g
   id="g76"
   transform="translate(336.5371,473.5654)">
					<path
   d="m 0,0 c -6.211,0.052 -12.164,-3.729 -14.694,-9.323 -0.854,-1.899 -1.349,-3.795 -1.47,-6.022 l -3.779,0 c 1.023,6.727 7.251,13.086 13.837,14.817 1.881,0.58 3.984,1.041 6.106,0.959 L 0,0 z"
   style="fill:#373535;fill-opacity:1;fill-rule:nonzero;stroke:none"
   id="path78"
   inkscape:connector-curvature="0" />
				</g>
				<g
   id="g80"
   transform="translate(344.8672,467.2539)">
					<path
   d="m 0,0 c -0.137,0.582 -0.426,1.129 -1.025,1.438 -0.67,0.257 -1.661,0.41 -2.26,-0.139 -0.426,-0.324 -0.701,-0.803 -0.683,-1.35 -0.018,-0.498 0.137,-0.926 0.477,-1.265 1.678,-0.991 3.987,-0.567 5.218,-2.43 0.738,-0.957 0.874,-2.533 0.378,-3.645 -0.701,-1.47 -2.209,-2.427 -3.898,-2.343 -0.943,-0.018 -1.746,0.427 -2.43,0.941 l 0,-0.598 -1.675,0 0,3.575 1.757,0.015 c 0.036,-0.717 0.481,-1.336 1.061,-1.76 0.618,-0.275 1.353,-0.498 2.055,-0.291 0.734,0.256 1.47,0.889 1.572,1.696 0.086,0.611 -0.118,1.109 -0.463,1.554 -1.656,1.336 -4.494,0.53 -5.542,2.907 -0.411,0.925 -0.459,2.259 0.053,3.166 0.548,1.095 1.676,1.846 2.874,1.933 1.043,0.069 1.931,-0.239 2.704,-0.822 l 0,0.65 1.606,0 0,-3.222 L 0,0 z"
   style="fill:#618bc7;fill-opacity:1;fill-rule:nonzero;stroke:none"
   id="path82"
   inkscape:connector-curvature="0" />
				</g>
				<g
   id="g84"
   transform="translate(336.6406,469.4082)">
					<path
   d="m 0,0 c -4.826,-0.066 -9.478,-2.924 -11.309,-7.424 -0.478,-1.23 -0.753,-2.361 -0.855,-3.746 l -3.625,-0.018 c 0.17,1.116 0.736,1.969 1.23,2.993 2.891,5.34 8.587,8.504 14.559,8.572 L 0,0 z"
   style="fill:#373535;fill-opacity:1;fill-rule:nonzero;stroke:none"
   id="path86"
   inkscape:connector-curvature="0" />
				</g>
				<g
   id="g88"
   transform="translate(370.1113,465.5801)">
					<path
   d="m 0,0 0.008,-5.992 -1.303,0 0,-1.733 4.468,0 0,1.733 -1.329,0 -0.009,3.674 c 0.092,0.714 0.331,1.367 0.889,1.888 0.463,0.481 1.146,0.58 1.847,0.58 0.821,-0.086 1.711,-0.683 1.935,-1.521 0.057,-0.318 0.098,-0.631 0.121,-0.945 l -0.02,-3.676 -1.337,0 0,-1.733 4.468,0 0,1.733 -1.275,0 -0.022,3.697 C 8.394,-1.182 8.152,-0.15 7.326,0.645 6.197,1.793 4.144,2.082 2.724,1.33 2.384,1.195 2.051,0.887 1.782,0.768 l -0.007,0.884 -3.044,0.012 0,-1.666 L 0,0 z"
   style="fill:#618bc7;fill-opacity:1;fill-rule:nonzero;stroke:none"
   id="path90"
   inkscape:connector-curvature="0" />
				</g>
				<g
   id="g92"
   transform="translate(336.6406,465.748)">
					<path
   d="m 0,0 c -3.2,-0.084 -6.4,-1.865 -7.612,-4.908 -0.31,-0.889 -0.565,-1.608 -0.583,-2.619 l -3.559,0 c 1.367,4.5 6.144,7.699 10.796,7.955 0.202,0 0.826,0.017 0.956,0.008 L 0,0 z"
   style="fill:#373535;fill-opacity:1;fill-rule:nonzero;stroke:none"
   id="path94"
   inkscape:connector-curvature="0" />
				</g>
				<g
   id="g96"
   transform="translate(352.1367,475.2383)">
					<path
   d="m 0,0 0,8.198 -4.146,-9.926 -1.223,-0.014 -4.184,9.971 0.028,-8.254 1.253,0.019 0,-1.732 -4.47,0 0,1.732 1.299,0.006 -0.001,9.002 c -0.045,0.115 -0.062,0.152 -0.187,0.172 l -1.044,0 0,1.674 3.933,0 3.902,-9.153 0.582,1.201 3.284,7.952 4.172,0 0,-1.674 -1.162,0 L 1.899,9.019 1.874,0 l 1.292,0 0,-1.732 -4.469,0 0,1.732 L 0,0 z"
   style="fill:#618bc7;fill-opacity:1;fill-rule:nonzero;stroke:none"
   id="path98"
   inkscape:connector-curvature="0" />
				</g>
				<g
   id="g100"
   transform="translate(369.2539,470.3027)">
					<path
   d="m 0,0 4.651,10.921 1.196,0 0,1.669 -4.466,0 0,-1.669 1.301,0 -2.18,-5.144 -2.052,5.144 1.304,0 0,1.669 -4.469,0 0,-1.669 1.027,-0.005 3.081,-7.653 -0.709,-1.589 -1.645,0 0,-1.669 L 0,0 z"
   style="fill:#618bc7;fill-opacity:1;fill-rule:nonzero;stroke:none"
   id="path102"
   inkscape:connector-curvature="0" />
				</g>
				<g
   id="g104"
   transform="translate(376.6279,479.3145)">
					<path
   d="M 0,0 C 0.088,0.838 1.063,1.59 1.848,1.898 3.336,2.359 4.979,1.778 5.715,0.374 L 5.867,0 0,0 z M 7.031,1.691 C 5.646,3.746 2.909,4.5 0.737,3.404 -0.717,2.77 -1.779,1.247 -2.053,-0.239 c -0.41,-2.224 0.754,-4.261 2.637,-5.39 1.297,-0.768 3.249,-0.787 4.599,-0.12 1.046,0.548 2.157,1.608 2.328,2.753 l -1.796,0 -0.787,-0.82 c -0.857,-0.633 -2.193,-0.89 -3.199,-0.409 -0.923,0.426 -1.762,1.332 -1.935,2.342 l 8.06,0 C 8.058,-0.6 7.731,0.667 7.031,1.691"
   style="fill:#618bc7;fill-opacity:1;fill-rule:nonzero;stroke:none"
   id="path106"
   inkscape:connector-curvature="0" />
				</g>
				<g
   id="g108"
   transform="translate(363.8242,465.5273)">
					<path
   d="M 0,0 1.244,-0.006 1.24,-4.252 C 1.124,-4.902 0.866,-5.49 0.339,-5.955 c -0.548,-0.324 -1.181,-0.58 -1.882,-0.412 -0.581,0.156 -1.183,0.429 -1.523,1.029 -0.225,0.676 -0.323,1.402 -0.36,2.154 l 0,4.893 -3.01,0 0,-1.709 1.198,0 c 0.052,-2.158 -0.158,-4.305 0.562,-6.229 0.338,-0.917 1.539,-1.619 2.552,-1.779 1.265,-0.187 2.548,0.035 3.457,0.942 l 0.006,-0.604 3.069,-0.012 0,1.735 L 3.065,-5.938 3.064,1.719 0,1.709 0,0 z"
   style="fill:#618bc7;fill-opacity:1;fill-rule:nonzero;stroke:none"
   id="path110"
   inkscape:connector-curvature="0" />
				</g>
				<g
   id="g112"
   transform="translate(384.5957,459.1816)">
					<path
   d="M 0,0 C -1.771,0 -3.206,1.434 -3.206,3.205 -3.206,4.975 -1.771,6.41 0,6.41 1.771,6.41 3.205,4.975 3.205,3.205 3.205,1.434 1.771,0 0,0 M 4.83,0.406 4.85,11.09 1.803,11.068 1.803,9.4 3.07,9.42 3.07,6.977 C 1.754,8.191 -0.247,8.621 -1.959,8.037 -3.498,7.387 -4.626,5.918 -4.984,4.344 -5.275,2.717 -4.797,1.178 -3.84,-0.035 c 1.215,-1.488 3.029,-1.807 4.806,-1.627 0.584,0.058 1.487,0.599 2.138,1.215 l 0,-0.881 3.204,0 0,1.734 -1.478,0"
   style="fill:#618bc7;fill-opacity:1;fill-rule:nonzero;stroke:none"
   id="path114"
   inkscape:connector-curvature="0" />
				</g>
				<g
   id="g116"
   transform="translate(352.7363,459.0898)">
					<path
   d="m 0,0 c -1.82,0 -3.297,1.479 -3.297,3.297 0,1.822 1.477,3.295 3.297,3.295 1.82,0 3.297,-1.473 3.297,-3.295 C 3.297,1.479 1.82,0 0,0 m 0,8.33 c -2.754,0 -4.99,-2.236 -4.99,-4.99 0,-2.756 2.236,-4.988 4.99,-4.988 2.755,0 4.988,2.232 4.988,4.988 0,2.754 -2.233,4.99 -4.988,4.99"
   style="fill:#618bc7;fill-opacity:1;fill-rule:nonzero;stroke:none"
   id="path118"
   inkscape:connector-curvature="0" />
				</g>
				<g
   id="g120"
   transform="translate(393.6289,485)">
					<path
   d="m 0,0 0.252,0 c 0.289,0 0.532,0.105 0.532,0.377 0,0.191 -0.14,0.381 -0.532,0.381 C 0.139,0.758 0.062,0.752 0,0.742 L 0,0 z m 0,-1.209 -0.348,0 0,2.188 C -0.165,1.003 0.01,1.031 0.269,1.031 0.602,1.031 0.82,0.961 0.95,0.864 1.08,0.769 1.152,0.621 1.152,0.412 1.152,0.123 0.96,-0.051 0.724,-0.12 l 0,-0.017 c 0.19,-0.035 0.321,-0.209 0.365,-0.531 0.054,-0.342 0.105,-0.471 0.14,-0.541 l -0.366,0 c -0.052,0.07 -0.105,0.27 -0.149,0.559 -0.052,0.275 -0.193,0.382 -0.468,0.382 l -0.246,0 0,-0.941 m 0.368,2.797 c -0.864,0 -1.571,-0.741 -1.571,-1.654 0,-0.934 0.707,-1.666 1.579,-1.666 0.871,-0.01 1.568,0.732 1.568,1.656 0,0.923 -0.697,1.664 -1.568,1.664 l -0.008,0 m 0.008,0.305 c 1.069,0 1.926,-0.872 1.926,-1.959 0,-1.11 -0.857,-1.971 -1.934,-1.971 -1.073,0 -1.944,0.861 -1.944,1.971 0,1.087 0.871,1.959 1.944,1.959 l 0.008,0"
   style="fill:#373535;fill-opacity:1;fill-rule:nonzero;stroke:none"
   id="path122"
   inkscape:connector-curvature="0" />
				</g>
				<g
   id="g124"
   transform="translate(221.8765,482.873)">
					<path
   d="m 0,0 0.927,0 0,-1.72 1.025,0 0,-0.726 -1.025,0 0,-3.794 c 0,-0.475 0.122,-0.66 0.606,-0.66 0.199,0 0.309,0.023 0.408,0.033 l 0,-0.76 C 1.82,-7.648 1.578,-7.695 1.192,-7.695 0.233,-7.695 0,-7.298 0,-6.525 l 0,4.079 -0.858,0 0,0.726 L 0,-1.72 0,0 z"
   style="fill:#373535;fill-opacity:1;fill-rule:nonzero;stroke:none"
   id="path126"
   inkscape:connector-curvature="0" />
				</g>
				<g
   id="g128"
   transform="translate(224.5898,483.1143)">
					<path
   d="m 0,0 0.924,0 0,-2.634 0.023,0 c 0.242,0.487 0.892,0.827 1.42,0.827 1.521,0 1.521,-1.179 1.521,-1.874 l 0,-4.187 -0.925,0 0,4.078 c 0,0.451 -0.032,1.189 -0.869,1.189 -0.497,0 -1.17,-0.33 -1.17,-1.189 l 0,-4.078 L 0,-7.868 0,0 z"
   style="fill:#373535;fill-opacity:1;fill-rule:nonzero;stroke:none"
   id="path130"
   inkscape:connector-curvature="0" />
				</g>
				<path
   d="m 229.615,481.153 0.925,0 0,-5.907 -0.925,0 0,5.907 z m 0,1.961 0.925,0 0,-1.06 -0.925,0 0,1.06 z"
   style="fill:#373535;fill-opacity:1;fill-rule:nonzero;stroke:none"
   id="path132"
   inkscape:connector-curvature="0" />
				<g
   id="g134"
   transform="translate(231.6768,481.1533)">
					<path
   d="m 0,0 0.882,0 0,-0.694 0.022,0 c 0.242,0.539 0.86,0.848 1.434,0.848 1.552,0 1.552,-1.179 1.552,-1.874 l 0,-4.187 -0.927,0 0,4.078 c 0,0.451 -0.031,1.189 -0.869,1.189 -0.497,0 -1.168,-0.33 -1.168,-1.189 l 0,-4.078 L 0,-5.907 0,0 z"
   style="fill:#373535;fill-opacity:1;fill-rule:nonzero;stroke:none"
   id="path136"
   inkscape:connector-curvature="0" />
				</g>
				<g
   id="g138"
   transform="translate(241.1094,475.2461)">
					<path
   d="m 0,0 -1.078,0 -1.644,2.92 -0.76,-0.926 0,-1.994 -0.924,0 0,7.868 0.924,0 0,-4.682 0.023,0 2.07,2.721 1.081,0 L -2.104,3.68 0,0 z"
   style="fill:#373535;fill-opacity:1;fill-rule:nonzero;stroke:none"
   id="path140"
   inkscape:connector-curvature="0" />
				</g>
				<path
   d="m 241.784,481.153 0.926,0 0,-5.907 -0.926,0 0,5.907 z m 0,1.961 0.926,0 0,-1.06 -0.926,0 0,1.06 z"
   style="fill:#373535;fill-opacity:1;fill-rule:nonzero;stroke:none"
   id="path142"
   inkscape:connector-curvature="0" />
				<g
   id="g144"
   transform="translate(243.8472,481.1533)">
					<path
   d="m 0,0 0.884,0 0,-0.694 0.019,0 c 0.244,0.539 0.862,0.848 1.434,0.848 1.553,0 1.553,-1.179 1.553,-1.874 l 0,-4.187 -0.925,0 0,4.078 c 0,0.451 -0.032,1.189 -0.871,1.189 -0.496,0 -1.168,-0.33 -1.168,-1.189 l 0,-4.078 L 0,-5.907 0,0 z"
   style="fill:#373535;fill-opacity:1;fill-rule:nonzero;stroke:none"
   id="path146"
   inkscape:connector-curvature="0" />
				</g>
				<g
   id="g148"
   transform="translate(249.4561,478.1992)">
					<path
   d="M 0,0 C 0,-0.959 0.143,-2.16 1.068,-2.16 2.072,-2.16 2.27,-1.213 2.27,0 2.27,1.147 2.072,2.314 1.08,2.314 0.222,2.314 0,1.408 0,0 m 3.141,-2.58 c 0,-1.762 -0.815,-2.402 -2.006,-2.402 -0.364,0 -1.786,0 -1.939,1.478 l 0.926,0 c 0.045,-0.539 0.462,-0.75 0.946,-0.75 1.191,0 1.149,0.916 1.149,1.322 l 0,0.772 -0.023,0 C 1.995,-2.655 1.445,-2.953 0.859,-2.953 c -1.718,0 -1.83,2.172 -1.83,2.953 0,1.599 0.433,3.108 1.93,3.108 0.638,0 1.157,-0.442 1.278,-0.903 l 0.022,0 0,0.749 0.882,0 0,-5.534 z"
   style="fill:#373535;fill-opacity:1;fill-rule:nonzero;stroke:none"
   id="path150"
   inkscape:connector-curvature="0" />
				</g>
				<g
   id="g152"
   transform="translate(259.4321,479.4238)">
					<path
   d="m 0,0 c 0,0.748 -0.201,1.157 -0.874,1.157 -0.296,0 -0.957,-0.077 -0.957,-0.905 0,-0.695 0.727,-0.826 1.455,-1.069 0.716,-0.242 1.441,-0.496 1.441,-1.664 0,-1.247 -0.803,-1.852 -1.906,-1.852 -2.007,0 -2.027,1.489 -2.027,2.093 l 0.926,0 c 0,-0.714 0.199,-1.364 1.101,-1.364 0.298,0 0.981,0.141 0.981,0.978 0,0.796 -0.725,0.96 -1.443,1.203 -0.715,0.243 -1.456,0.451 -1.456,1.675 0,1.102 0.862,1.632 1.885,1.632 1.72,0 1.787,-1.191 1.798,-1.884 L 0,0 z"
   style="fill:#373535;fill-opacity:1;fill-rule:nonzero;stroke:none"
   id="path154"
   inkscape:connector-curvature="0" />
				</g>
				<g
   id="g156"
   transform="translate(264.5972,478.1992)">
					<path
   d="m 0,0 c 0,1.277 -0.186,2.382 -1.177,2.382 -0.937,0 -1.136,-1.105 -1.136,-2.382 0,-1.279 0.187,-2.38 1.136,-2.38 C -0.196,-2.38 0,-1.279 0,0 m -1.154,3.108 c 1.707,0 2.125,-1.444 2.125,-3.108 0,-1.664 -0.429,-3.108 -2.125,-3.108 -1.71,0 -2.129,1.444 -2.129,3.108 0,1.664 0.43,3.108 2.129,3.108"
   style="fill:#373535;fill-opacity:1;fill-rule:nonzero;stroke:none"
   id="path158"
   inkscape:connector-curvature="0" />
				</g>
				<g
   id="g160"
   transform="translate(270.4023,475.2461)">
					<path
   d="m 0,0 -0.881,0 0,0.693 -0.022,0 c -0.243,-0.54 -0.859,-0.848 -1.433,-0.848 -1.553,0 -1.553,1.18 -1.553,1.874 l 0,4.188 0.924,0 0,-4.079 c 0,-0.451 0.033,-1.189 0.872,-1.189 0.495,0 1.168,0.332 1.168,1.189 l 0,4.079 L 0,5.907 0,0 z"
   style="fill:#373535;fill-opacity:1;fill-rule:nonzero;stroke:none"
   id="path162"
   inkscape:connector-curvature="0" />
				</g>
				<g
   id="g164"
   transform="translate(271.5386,481.1533)">
					<path
   d="m 0,0 0.881,0 0,-0.694 0.022,0 c 0.243,0.539 0.857,0.848 1.432,0.848 1.554,0 1.554,-1.179 1.554,-1.874 l 0,-4.187 -0.926,0 0,4.078 c 0,0.451 -0.032,1.189 -0.871,1.189 -0.495,0 -1.167,-0.33 -1.167,-1.189 l 0,-4.078 L 0,-5.907 0,0 z"
   style="fill:#373535;fill-opacity:1;fill-rule:nonzero;stroke:none"
   id="path166"
   inkscape:connector-curvature="0" />
				</g>
				<g
   id="g168"
   transform="translate(278.3716,475.8848)">
					<path
   d="M 0,0 C 1.023,0 1.189,0.971 1.189,2.314 1.189,3.462 0.992,4.629 0,4.629 -0.86,4.629 -1.081,3.723 -1.081,2.314 -1.081,0.904 -0.86,0 0,0 m 2.059,-0.639 -0.88,0 0,0.727 -0.022,0 c -0.121,-0.442 -0.64,-0.882 -1.279,-0.882 -1.399,0 -1.928,1.244 -1.928,3.108 0,1.235 0.197,3.109 1.862,3.109 0.528,0 1.09,-0.319 1.301,-0.827 l 0.021,0 0,2.633 0.925,0 0,-7.868 z"
   style="fill:#373535;fill-opacity:1;fill-rule:nonzero;stroke:none"
   id="path170"
   inkscape:connector-curvature="0" />
				</g>
			</g>
		</g>
	</g>
</svg>